<svg xmlns="http://www.w3.org/2000/svg" xmlns:xlink="http://www.w3.org/1999/xlink" viewBox="0 0 1080 1080"><defs><style>.cls-1{fill:url(#linear-gradient);}</style><linearGradient id="linear-gradient" x1="111.9" y1="540" x2="968.1" y2="540" gradientUnits="userSpaceOnUse"><stop offset="0.1" stop-color="#71c479"/><stop offset="0.83" stop-color="#92ffb3"/></linearGradient></defs><title>.</title><g id="TEXTS"><path class="cls-1" d="M220.34,655c3.65-10.88,6.51-21.84,11-32.11,6.68-15.42,15.64-20.16,32.38-19,74.24,5.09,143-39.85,165.58-110.33,20.05-62.47,6.54-118.39-37.77-166.78-2.2-2.4-5.26-4-8.29-6.3l26.87-51.6c-9.5-9.26-19.13-18.81-29-28.1-1.69-1.59-4.45-2.12-6.79-2.91a6.81,6.81,0,0,0-3.3,0c-35.43,6.82-61.72-7.35-82.36-35.3-4.11-5.57-9.77-10-14.74-14.94-6.42-6.37-8.21-13.51-1.48-20.36s13.92-5.35,20.37,1.07c11.76,11.69,23.11,23.83,35.41,34.92,4.15,3.74,10.94,7.36,16,6.79,32.32-3.64,59.79,3.07,76.59,34,2.68-2.31,3.88-2.85,4.24-3.73,7.38-18.46,21.91-17.91,37.58-14.17,58.33,13.9,97.63,51.06,124,103.09,23.91,47.26,30.2,98.24,27.53,150.42a350.16,350.16,0,0,1-7.78,59c-2.92,12.93-9.19,25.55-16,37.08-20,33.69-23.37,68.43-9.22,104.81,4.53,11.65,10.06,22.91,14.8,34.48,2.19,5.34,3.6,11,6,18.56h-32c-26.2,0-36.18,9.75-36.6,35.57-.06,3.59-.35,7.18-.6,12.12-16.41,0-32.16-.09-47.91,0-18.84.14-24.13,9.2-14.72,25.17,7.11,12,14.37,24,22.54,37.61-19.21,18.36-38.08,37.35-58.08,55.07C426,906.68,414.46,905,405,897.5A170.59,170.59,0,0,1,390.41,884c-45.88-45.85-91.9-91.56-137.38-137.8-8.14-8.27-14.1-18.7-20.85-28.29-7.93-11.29-14.82-23.43-23.62-34-13.21-15.83-28.07-30.27-41.41-46-3.9-4.59-7.87-12-7-17.33,5.57-32.95-6.64-57.5-32.69-76.7-4.39-3.24-8-7.6-11.63-11.78-5.39-6.27-5.34-13.05.57-18.74,5.51-5.3,12.55-5.54,18-.33,16.47,15.82,32.57,32,48.45,48.46,2.27,2.35,3.17,6.55,3.58,10,.6,5.09,1.12,10.51,0,15.43C179.34,619.08,200.65,636.64,220.34,655ZM499,573.7l2.29-3.37c13.95,0,27.9-.15,41.85,0,9.29.13,16.13-2.79,16.94-13,.69-8.68-5.85-13.87-17.18-13.91-24.29-.1-48.58.07-72.87-.1-7.49-.05-15.54.92-16.8,8.93-.85,5.38,2,13,5.84,17.15,16.54,17.77,34,34.66,51.27,51.77,8.11,8.06,16.07,9,22.08,3s5.13-14.11-3-22.06C519.51,592.44,509.19,583.15,499,573.7ZM136.57,372.25c-6.28-6.46-13.45-8.19-20.3-1.28s-5.13,14,1.24,20.37c9.61,9.67,18.8,19.82,29,28.79,12.82,11.25,19.84,23.86,22.54,41.6,8.14,53.51,57.43,90.84,112.74,88.17,51.69-2.51,96.68-45.58,101.35-97,5-55.11-30.18-107.33-83.34-116.16-23-3.82-37.91-14.38-52.09-30-5.2-5.71-10.89-11-16.38-16.44C224,283,216.91,275.54,209.3,268.59c-6.15-5.61-12.94-5.21-18.66.74-5.37,5.59-5.28,12-.33,17.91,2.58,3.11,5.6,5.86,8.48,8.71,13.76,13.62,27.54,27.22,42.41,41.91-34.28,13.15-56.76,35.51-70,70.47C158.9,395.47,147.81,383.8,136.57,372.25ZM798.43,570.66c0-11.4-.37-22.81.09-34.2.65-16,10.46-26.05,26.43-26.69,13.95-.55,28-.54,41.91,0,15,.62,25.35,9.81,26,24.79,1,23.86,1,47.81,0,71.67-.61,15.27-11.55,24.79-26.83,25.35-13.23.48-26.49.43-39.72,0-16.78-.49-27.23-11-27.82-27.9-.38-11-.07-22.06-.07-33.1Zm27.82-33.61v66.71H865.1V537.05ZM798.35,713.2c0-10.67-.22-21.34,0-32,.47-18.26,10.8-28.77,28.83-29.2,12.5-.3,25-.32,37.52,0,16.46.45,27.65,10.16,28.25,26.38.87,23.13.85,46.35,0,69.49-.58,16-10.9,25.46-27.12,26.17-13.58.59-27.23.61-40.8-.06-16.63-.82-26.06-10.88-26.63-27.7-.37-11-.07-22.07-.07-33.1Zm27.57,33H865V679.94H825.92ZM784.35,855.87c0,11.4.46,22.82-.1,34.19-.81,16.29-11.36,26.46-27.63,26.89-13.23.36-26.49.4-39.72,0-15.25-.47-26.33-10.07-26.9-25.21-.91-23.86-.91-47.8,0-71.66.58-15.4,11.32-24.58,26.89-25,13.6-.36,27.22-.38,40.82,0,15.39.47,25.13,10.13,26.55,25.46.1,1.1.21,2.2.22,3.3q0,16,0,32Zm-67.1,33.35h39.24V822.7H717.25ZM745,323.69c6.28-6.3,8.29-13.58,1.64-20.45s-14-5.56-20.44.81q-29.42,29.18-58.6,58.58c-6.84,6.88-7.33,14.29-.33,21.35q29.57,29.81,59.37,59.37c5.7,5.68,12.2,6.8,18.84,1.7,7-5.37,6.76-14.2-.91-22-16-16.25-32.31-32.24-49.6-49.45C712.19,356.41,728.61,340.09,745,323.69Zm139.95,100.2c-6.41,6.4-7.42,13.8-.69,20.41,6.42,6.31,13.52,5,19.56-1q29.79-29.5,59.3-59.3c6-6.05,7-13.49.91-19.72Q933.58,333,902.34,302.64c-5.82-5.68-13-5.33-18.7.58-5.29,5.49-5.06,12-.4,18a77.19,77.19,0,0,0,6.88,7.14c14.83,14.73,29.67,29.45,45.7,45.36C917.9,391.36,901.32,407.53,884.92,423.89ZM856.76,300.08c-7-3.44-12.8.35-16.66,6.65-24.41,39.86-49,79.63-72.81,119.83-2.39,4-2.13,11.91.27,16,5.4,9.29,16.86,7.1,23.77-4.13q35.59-57.83,70.8-115.88c1.86-3.06,2.89-6.61,5.19-12C864,307.09,861,302.18,856.76,300.08ZM648.41,741.15c-.06,2.59-4.13,4.88-5.59,7.7-2.64,5.1-7.54,11.37-6.25,15.54s8.8,8.78,13.85,9.1c14,.89,24.8-11,25.11-26.49.41-20.26-.53-40.56.33-60.79,1.28-29.94-19-37.07-42.88-33.78-7.43,1-12.77,6.73-10.6,14,1.44,4.83,6.94,9.28,11.71,12,3.37,1.93,8.55.72,14.59,1C648.68,700.73,648.89,721,648.41,741.15ZM627.74,604.89c-7.7.47-12.31,4.85-12.57,12.67-.29,8.4,4.54,13.1,12.55,14,5.83.63,11.77.31,17.67.22,19.48-.32,30-10.66,30.25-30.07.22-20.25.13-40.52,0-60.77-.06-12.07-4.44-17.63-13.41-17.61s-13.49,5.65-13.55,17.6c-.09,20.61,0,41.22,0,63.91C640.85,604.81,634.27,604.49,627.74,604.89Zm95.92,10.44c.11,10.43,5.5,16.93,13.73,16.19,9.31-.83,13.18-6.73,13.15-15.82q-.1-45.21,0-90.42c0-9-3.67-15.25-13.3-15.38s-13.6,5.88-13.6,15v45.21C723.61,585.18,723.49,600.26,723.66,615.33Zm244.19-89.85c0-8.84-3.32-15.16-13.09-15.69-8.57-.46-13.9,5.47-14,16q-.25,44.67,0,89.32c.06,10.26,5.67,17,13.75,16.43,10.1-.74,13.43-7.42,13.35-16.75-.12-14.7,0-29.4,0-44.1Q967.85,548.09,967.85,525.48ZM750.5,669.54c-.09-11.3-5.26-18.08-13.77-17.35-10,.86-13.25,7.46-13.19,16.87q.27,44.12,0,88.22c0,9.31,2.87,16.05,13.24,16.61,8.87.48,13.62-5.64,13.7-17.23.1-14.7,0-29.41,0-44.11C750.52,698.21,750.6,683.88,750.5,669.54Zm217.33,0c-.12-11.37-5.34-18.14-13.76-17.34-9.92.95-13.4,7.57-13.37,16.91.1,29.4.06,58.81,0,88.21,0,9.22,3.1,16,13.43,16.59,8.62.47,13.48-5.28,13.64-16.16.22-14.7.06-29.41.06-44.11S968,684.23,967.83,669.53ZM641.94,812.24c-.09-11.42-5.07-17.59-14-17.1-10.5.59-13.12,7.59-13.09,16.76q.14,44.1,0,88.22c0,9.36,3.19,16,13.3,16.73,8.46.59,13.67-6.27,13.76-17.49.12-14.34,0-28.67,0-43C642,841.65,642.07,826.94,641.94,812.24Zm217.15-1c-.12-10.84-5-16.59-13.62-16.13-10.36.55-13.35,7.31-13.32,16.6q.15,44.1,0,88.22c0,9.36,3.22,16,13.25,16.86,8.53.72,13.62-5.94,13.71-17.33.12-14.34,0-28.67,0-43C859.13,841.43,859.25,826.36,859.09,811.29ZM967.8,811c-.17-10.78-5.21-16.43-13.9-15.89-9.7.61-13.12,6.94-13.14,15.74,0,29.77-.11,59.54,0,89.31.05,10.41,5.37,16.67,13.51,16.75s13.36-6,13.51-16.59c.2-14.7.05-29.41.05-44.11C967.85,841.18,968,826.11,967.8,811Z"/></g></svg>