<svg xmlns="http://www.w3.org/2000/svg" xmlns:xlink="http://www.w3.org/1999/xlink" viewBox="0 0 1080 1080"><defs><style>.cls-1{fill:url(#linear-gradient);}</style><linearGradient id="linear-gradient" x1="137.38" y1="558.39" x2="942.62" y2="558.39" gradientUnits="userSpaceOnUse"><stop offset="0.1" stop-color="#71c479"/><stop offset="0.83" stop-color="#92ffb3"/></linearGradient></defs><title>.</title><g id="TEXTS"><path class="cls-1" d="M684,806.76c-40.72,23-83,35.7-129.42,38.27,0,8.4-.57,16.43.34,24.29.28,2.44,4.29,4.92,7.08,6.51,18,10.23,27.14,31,22.12,50.57-5.2,20.27-22.45,34.26-42.85,34.72a45.36,45.36,0,0,1-44.91-33.22c-5.7-20,2.78-41.69,21.39-51.39,6.74-3.51,8.9-7.42,8.15-14.45-.57-5.28-.11-10.67-.11-15.95-15.18-2.31-29.56-4.88-44-6.53-7.47-.85-9.47-4.39-8.92-11.18,2.47-30.72,2.69-61.78,7.56-92.1,10.28-64.09-34.69-115-99.39-108.5-37.18,3.71-74.12,9.88-111.16,14.92-1.16.16-2.35,0-5.83,0-4.11-22.77-8.27-45.88-12.61-69.94-6.42,0-13.95-.66-21.26.34-2.78.37-5.76,4.14-7.43,7.06-10.45,18.32-31.41,27.49-51.39,22.1a45.39,45.39,0,1,1,50.79-66.46c1.48,2.57,2.78,5.25,4.32,8.18,6.31,0,13.08,1.54,18.79-.26,26.13-8.22,50.22,4,75.14,6.86,29.2,3.33,48.54-4.66,62.91-30.33,6.07-10.85,15.12-15.55,27.34-15.22,27.78.76,49.65-13.11,58.8-37.09,9.05-23.73,2.41-48.6-18.36-66.32q-39-33.26-78.52-65.84c-4.1-3.4-5.45-6.72-5.39-12,.33-30.84.16-61.69.16-93.56-3.34-.2-6.2-.51-9.05-.52-15.88,0-31.77.24-47.65-.15-6-.15-9.34,1.4-12.32,7.2a44.82,44.82,0,0,1-56,21.18c-20.66-7.86-33-30.17-28.43-51.35,4.92-22.73,24.77-38.19,47.72-36.4,19.53,1.52,32.44,12.58,40.31,30.73,20,0,40.05,0,60.1,0C385,201,396,212,396,235.2c0,24.22,0,48.43,0,74.38,40.82-23.07,83.34-35.93,129.68-38.29,0-8.12.56-15.59-.31-22.9-.3-2.54-3.76-5.37-6.44-6.86C500.13,231.12,490.65,210,496,189.64a45.57,45.57,0,0,1,44.37-34c21.13.13,39,14.63,44,35.62,4.54,19.27-4.49,40.1-22.58,49.39-6.16,3.16-8,6.71-7.4,13.09.52,5.32.1,10.73.1,17.28,31.39,2.38,61.78,8,91.69,20.34-11.33,29.85-26.18,57.08-51.32,77.37-8.09,6.53-17.18,12-26.32,17-11.12,6.11-18.54,14.65-19,27.4-.44,13.32,6,23.67,17.49,30.36,20.48,11.9,42.92,11.7,65.52,9.86,4.16-.34,8.29-1.19,12.43-1.88,7.18-1.19,12.11,1.72,13,8.84.85,6.82-3.63,10.47-10.07,11.37-6.23.88-12.52,1.22-18.76,2A82.7,82.7,0,0,0,556.74,546c-2.55,21.43,10.47,44.4,32,52,21.8,7.64,30,21.84,29.75,44.24-.33,35.59,17.05,58.77,46.89,65.6,41.53,9.51,77.53-18.48,76.73-61-.37-19.82,4.49-36.69,16-52.83,13.27-18.59,14.19-39.56,6.34-60.87-4-10.94-2.9-13.88,7.73-17.31,15.89-5.13,31.84-10.11,49.45-15.69,2,14.74,3.85,28.75,5.86,43.84,7.52,0,15.28.56,22.86-.32,2.48-.29,5.14-4,6.67-6.73a46.26,46.26,0,0,1,47.75-23.35c17.9,2.74,32.6,16.79,36.68,35.07A45.3,45.3,0,0,1,858.58,582c-1.7-2.79-3.06-5.79-4.69-8.93H827.72c-2.17,14.25-3.72,28.48-6.58,42.43-14,68-48.4,123.73-102.45,167.23-4.47,3.6-6.15,7.12-6.1,12.75.28,27.56.12,55.14.14,82.71,0,2.64.22,5.28.39,9,20.93,0,41.51.23,62.06-.33,2.22-.06,4.79-4.49,6.39-7.35a45.67,45.67,0,0,1,55.68-20.74c20.74,7.66,32.66,29,28.6,51.14-4,21.55-23.65,37.61-45.69,36.67-16.8-.71-30-8.41-38-23.24-3.22-6-6.66-7.67-13.08-7.49-16.77.47-33.56.17-50.34.15C694.82,916,684,905.27,684,881.66,683.93,857.4,684,833.14,684,806.76Zm87.11-577.2c5.28-.09,7.76,1.79,10.15,6.45,10,19.36,30.78,28.61,51.39,23.49,19.85-4.94,34.41-23.73,34.29-44.23a45.42,45.42,0,0,0-34.72-43.76c-20.73-5.14-41,4-51.11,23.72-2.29,4.47-4.82,5.84-9.57,5.78q-28.31-.36-56.62,0c-19.24.23-30.73,11.88-30.9,30.91-.09,9.88,0,19.77,0,29.66v48.27c-8.47-7.33-12.8-5.42-15.93,3q-23.7,64-83.53,97.27c-2.22,1.24-4.29,2.74-6.63,4.25,8.93,7.9,23.32,12.24,39.23,11.39,9.24-.49,18.4-2.39,27.64-3.09,22.11-1.67,39,12.24,41.93,34.12,2.64,19.88-10.95,38.49-31.45,42.55a141.26,141.26,0,0,1-18.72,2.09c-19.24,1.21-33.18,11.27-43.61,26.54-14,20.54-9.26,38.59,14.08,46.75,21.36,7.47,34.13,24,38.62,46,1.84,9,1,18.5,1.65,27.75,1.38,20.57,16.4,34.07,36.19,32.68,18.74-1.32,32-17.3,30.46-37.37-1.68-22.43,3.79-42.85,17.27-60.78,10-13.24,11.72-26.82,5.57-42.17a41.74,41.74,0,0,1-3.07-18.29c1.51-17.82,12.18-28.6,28.89-33.88,17-5.38,34-10.8,51.37-16.32-.7-2.42-1-3.83-1.51-5.19q-27-80-92.86-132.82c-5.36-4.31-7.07-8.56-6.95-15.05.35-19.77.13-39.55.13-59.32V229.68C732.87,229.68,752,229.87,771.06,229.56ZM310.53,887.37c-6,.11-9.32-1.35-12.27-7.2A44.54,44.54,0,0,0,245,857.91,45.33,45.33,0,0,0,247,945.15c20,5.11,40.94-3.26,50.47-21.56,3.42-6.57,7.39-7.84,13.9-7.7,17.06.35,34.13.16,51.2.11,22-.07,33.35-11.31,33.42-33.12.08-22.46,0-44.92.05-67.38,0-2.47.42-5,.64-7.37l44.82,20.42c3.75-35.5,6.92-69.41,11-103.21,4.75-39.45-23.36-71.29-62.92-69.44-20.6,1-41.2,3-61.68,5.55-17.31,2.16-34.44,5.78-51.92,8.81.64,2.3.79,3.18,1.13,4,1.06,2.47,2.14,4.94,3.31,7.36a291.35,291.35,0,0,0,81,101.68c2.52,2,5.53,5.44,5.57,8.24.39,31.41.25,62.82.25,95.73C347.53,887.24,329,887,310.53,887.37ZM256.68,510.48c25.88,4.23,50.28,8.5,74.78,12.12,10.82,1.6,19.6-3.05,24.64-12.75,12.38-23.83,31.76-34.56,58.45-33.37a28.3,28.3,0,0,0,27.65-17.8c4.81-11.49,2.55-24.41-7.27-32.8-30-25.64-60.4-50.83-91.54-77C296.69,393.68,268,446.81,256.68,510.48Z"/></g></svg>