<svg xmlns="http://www.w3.org/2000/svg" xmlns:xlink="http://www.w3.org/1999/xlink" viewBox="0 0 1080 1080"><defs><style>.cls-1{fill:url(#linear-gradient);}</style><linearGradient id="linear-gradient" x1="187.86" y1="540" x2="892.14" y2="540" gradientUnits="userSpaceOnUse"><stop offset="0.1" stop-color="#71c479"/><stop offset="0.83" stop-color="#92ffb3"/></linearGradient></defs><title>.</title><g id="TEXTS"><path class="cls-1" d="M770.8,749.5c-53.92,31.1-107.42,62-161,92.74-4.74,2.72-3.57,5.72-2.67,9.61A68.68,68.68,0,0,1,475,889a64.38,64.38,0,0,1-1.43-38.14c1.06-3.89,1-6.45-3.09-8.78-53.6-30.72-107.09-61.62-161-92.7-12.57,13.36-27.41,22-45.82,23.78-35.08,3.45-66.48-19.31-74.22-54-7.42-33.23,11.77-67.87,44.6-78.59,8-2.61,9.56-6.18,9.52-13.8-.32-58.86-.21-117.71-.12-176.57,0-4.72-.26-7.74-6-9.56-29.13-9.12-47.57-32.64-49.13-61.49s14-54.68,39.77-66.55c26.47-12.17,56.22-6.5,78.2,14.9,1,.94,2,1.82,3.34,3l48.54-28C395,281.34,431.87,260,468.85,238.91c4.47-2.55,6-4.82,4.68-10.29a68.59,68.59,0,1,1,133.35.11c-1,4.2-1.06,6.85,3.34,9.38,53.39,30.58,106.67,61.38,160.39,92.36,25.41-25.07,54.65-32.33,86.8-14.84C882,329,893.89,351.26,891.9,379.31,889.48,413.39,869.38,433.44,837,443v7.41c0,59.68.07,119.36-.1,179,0,5.68,1.09,8.41,7.32,10.2,25.76,7.4,45.35,31.65,47.63,57.55,2.62,29.76-11.42,56-36.94,69a68.48,68.48,0,0,1-75.63-8.85C776.56,755,774,752.46,770.8,749.5Zm39.78-306.68c-19.72-4.95-35.53-15.15-45.94-32.62-10.53-17.69-12.38-36.62-6.61-56.41L592,257.94c-14.47,15.47-31.62,23.46-52.34,23.41s-37.48-8.81-51.54-23.28L322.48,353.78c9.54,42.11-8.21,74.17-48,87.37-4.68,1.56-4.74,4.3-4.73,8q.06,90.73-.09,181.49c0,5.51,2,7.22,7,8.75,19.11,5.76,33.24,17.9,42,35.88,7.87,16.23,8.84,33.21,3.63,50.9l165.57,95.62c38.42-31.55,64.84-31.54,104.75,0l165.23-95.44c-.66-3.36-1.22-6-1.7-8.69C750,683,769.5,650,803.08,639.74c6.48-2,7.65-4.87,7.62-10.89-.22-51.42-.12-102.85-.12-154.27Zm-66,97.57c-.29,112.35-92.26,204.08-204.51,204-112.54-.1-204.76-92.73-204.19-205.11s92.69-203.91,204.91-203.55S744.83,428.2,744.54,540.39ZM578.88,594.72a34.4,34.4,0,0,0-1.61-5.53C557.55,546,538,502.8,517.69,459.89c-1.9-4-8.2-8.07-12.57-8.2-3.9-.11-9.81,4.32-11.66,8.25-20.27,42.9-40,86.07-59.68,129.25-3.7,8.14-.76,15.54,6.52,18.61,7.07,3,13.56.26,17.45-7.75,4.2-8.63,7.67-17.64,12.26-26,1.44-2.63,5.44-5.37,8.34-5.45q27.18-.74,54.38,0c2.92.08,7,2.74,8.41,5.36,4.81,8.91,8.42,18.46,13,27.52,3,6,8.27,8.75,15.09,6.88C575.59,606.57,578.57,602,578.88,594.72Zm45.51-64.37c0-20.88,0-41.76,0-62.65,0-10.51-4.79-16.51-13-16.63S598,457.18,598,467.4q-.07,62.64,0,125.29c0,10.1,5.4,16.45,13.47,16.26,7.81-.17,12.86-6.28,12.89-16C624.43,572.12,624.38,551.23,624.39,530.35ZM484.8,541.53h41.64c-6.87-15-13.41-29.29-20.86-45.58Z"/></g></svg>