<svg xmlns="http://www.w3.org/2000/svg" xmlns:xlink="http://www.w3.org/1999/xlink" viewBox="0 0 1080 1080"><defs><style>.cls-1,.cls-5{fill:none;}.cls-2{isolation:isolate;}.cls-3{opacity:0.1;mix-blend-mode:lighten;}.cls-4{clip-path:url(#clip-path);}.cls-5{stroke:#fff;stroke-miterlimit:10;stroke-width:2.03px;}.cls-6{fill:url(#linear-gradient);}</style><clipPath id="clip-path"><rect class="cls-1" x="-2483" y="-47" width="1920" height="1080"/></clipPath><linearGradient id="linear-gradient" x1="157.34" y1="540" x2="922.66" y2="540" gradientUnits="userSpaceOnUse"><stop offset="0.1" stop-color="#71c479"/><stop offset="0.83" stop-color="#92ffb3"/></linearGradient></defs><title>.</title><g class="cls-2"><g id="BACKGROUND"><g class="cls-3"><g class="cls-4"><line class="cls-5" x1="790.49" y1="1284.13" x2="-801.17" y2="-297.02"/><line class="cls-5" x1="327.79" y1="1284.13" x2="-945.54" y2="-297.02"/><line class="cls-5" x1="-3092.43" y1="544.71" x2="46.43" y2="544.71"/><line class="cls-5" x1="-3233.69" y1="685" x2="187.69" y2="685"/><line class="cls-5" x1="-3374.96" y1="825.29" x2="328.96" y2="825.29"/><line class="cls-5" x1="-3516.23" y1="965.58" x2="470.23" y2="965.58"/></g></g></g><g id="TEXTS"><path class="cls-6" d="M254.29,441.83c-16.7-15.73-20.8-42-10.26-63.78s28.38-33.23,52.29-35.67c5.68-.58,8.22.86,10.11,7.25,2.83,9.56,7.6,18.8,12.94,27.31,4.77,7.62,12.89,8.44,18.84,3.65,5.64-4.53,6.1-11.62,1.21-18.71-14.26-20.66-13.21-37.07,3.59-55.95,5.74-6.44,6.06-13.45.88-18.66s-13.26-5.35-18.59,1c-7.22,8.56-13.19,18.16-21.3,29.59-3.2,0-9.59-.56-15.83.16s-12.41,2.73-20.52,4.62c.61-9.89.25-19.47,1.9-28.69,14.77-82.3,104.71-123.39,176.77-81,1.25.74,2.45,1.6,3.75,2.23,6.92,3.36,14.37,1.59,17.46-4.58,3.33-6.64,2.27-13.5-4.35-16.7-14.85-7.18-30.24-13.25-45.48-19.6-2.81-1.17-5.95-1.51-9.28-2.31,28.58-29.83,82.2-32.51,116.93-6.45a97.76,97.76,0,0,1,29.79,36c5.1,10.51,11.26,13.68,18.86,9.85,7.42-3.74,9-11,3.59-21.15-4.76-8.93-10.4-17.4-15.65-26.06,32.62-13.13,78.62,1.65,95.63,32.41,3.64,6.56,2.57,17.06.62,25-1.79,7.25-7.6,13.54-11.84,20.12-4.35,6.76-3.77,13.48,1.83,17.92,5.42,4.29,12.79,3.55,17.93-2.31,13.13-15,20.92-32.13,20.63-52.34,34.39-8,87.56,34.25,94.89,75.61-10.74-2.5-21.22-5.15-31.81-7.3a61.69,61.69,0,0,0-13.91-1c-7.42.22-12.19,4.2-12.65,11.77s3.63,12.12,11.11,13.17c5.76.82,11.68.69,17.38,1.77,37,7,66.13,35.92,73.09,72.4a91.11,91.11,0,0,1-41.58,94.06c-31.5,19.42-75,18-103.77-4.41-23.5-18.3-36.51-42.61-37.77-72.81-.46-11.07-9.88-17.58-18.18-12.31a16.31,16.31,0,0,0-6.45,10.4,44.54,44.54,0,0,0,1.13,18.18c10.81,35.9-23.15,93.11-77.05,96.83-38.6,2.66-70.7-18-85.33-54-4.18-10.3-9.86-13.89-17.54-11.08-6.8,2.49-10.25,9-7.44,16.24a127.16,127.16,0,0,0,10.71,21.89c3,4.78,3.24,8.62,1.24,13.66-14.44,36.35-50.1,57.63-90.06,53.49-36-3.73-66.14-32.8-73.09-70.07-4.14-22.21,1.75-41.92,13.65-60.49,2.25-3.5,4.95-8.35,4.12-11.78-1-4.07-5.2-9.72-8.68-10.25-4.43-.66-11.2,1.76-14,5.23C263.67,407.7,257.46,423.74,254.29,441.83Zm217.56-92.28c0,13.5-.16,26,.06,38.53.14,8.47,5.27,13.7,12.69,13.64,7.26-.05,12.31-4.69,12.35-13,.16-29.16.81-58.35-.53-87.45-1.22-26.34-25.26-46.71-51.48-46-27.08.77-49.14,22.14-50.06,48.75-.33,9.61-.12,19.24-.12,28.86,0,18.37-.46,36.76.35,55.1.2,4.34,3.77,10,7.49,12.25,2.93,1.77,9.64.59,12.53-1.84s4.36-8,4.57-12.31c.59-12.12.21-24.28.21-36.58ZM572,289.2c4.14-.38,7.34-.43,10.45-1,6.61-1.23,10.23-5.39,10.26-12.12,0-7.21-4.06-12.12-10.92-12.4-15.12-.63-30.29-.61-45.41,0-7,.28-10.95,5.34-10.86,12.45s4.06,11.28,11.17,12.25c3.08.41,6.19.65,9.17,1v80.72c-3.57.24-6.51.15-9.33.69-6.82,1.3-11,5.36-11,12.53s4.2,12.1,11,12.38c15.11.64,30.28.62,45.39,0,6.35-.27,10.52-4.83,10.8-11.68.3-7.23-3.6-11.49-10.38-13-3.27-.74-6.72-.75-10.33-1.11Zm-376.32,452c36.45,18,75,24.14,113.71,29.24,82.49,10.89,165.47,14.7,248.58,13.74,78.41-.91,156.73-4.62,234.34-17a466.43,466.43,0,0,0,47-9.69c15.11-4,29.77-9.73,45.41-15a41.74,41.74,0,0,1,1.84,4.86c11.66,42.07,23,84.22,35.14,126.14,2.48,8.57-.07,13.14-7.3,15.45-19.91,6.38-39.7,13.52-60.06,18-57.06,12.44-115.12,17.62-173.31,21.16a2332.28,2332.28,0,0,1-247.34,1.74C356.27,926.35,279,920.43,203.37,902c-13.48-3.29-26.43-8.79-39.5-13.6-6-2.21-7.73-6.09-5.75-13,12.15-42.53,23.7-85.22,35.47-127.86C194.13,745.53,194.87,743.65,195.71,741.17Zm55.88,57.29c-25.08-.24-45.41,19.36-45.75,44.12a45,45,0,0,0,44.72,46.11c25.15.29,45.94-20.1,46-45.09C296.61,819,276.38,798.7,251.59,798.46Zm-36.09-75c13.83,4.44,27.66,9.21,41.84,12.21,72.71,15.35,146.56,20.36,220.6,22.36,94.5,2.56,189,1,282.76-12.18,33.31-4.68,66.09-13.28,99-20.65,6.26-1.4,11.94-5.43,17.88-8.24,0-.84,0-1.69.07-2.53-6.19-2.93-12.1-6.88-18.6-8.6-22.2-5.86-44.65-10.79-66.91-16.43-5-1.27-8,.23-11.28,3.87-10.63,12-21.33,24-32.45,35.51-12.59,13.06-30.44,15.75-45.66,7.57A37.38,37.38,0,0,1,683.63,695c1.23-5.71,4.18-11.06,6.65-17.37a2177.94,2177.94,0,0,0-300.86.1,11.54,11.54,0,0,0,.43,2.66c11.6,21,8.58,40.83-8.08,53-17.17,12.56-37.58,9.39-53.7-8.31-9.82-10.77-19.55-21.63-29.63-32.16-1.89-2-5.57-4.08-7.87-3.58-23,5-46,10.25-68.77,16.16-6.77,1.76-12.93,5.86-21.6,9.93C206.88,719,210.94,722,215.5,723.48ZM587.64,513.12c8.18,6.36,14.37,11.86,21.22,16.34,15.41,10.08,24,25.34,19.89,41.19-2.27,8.83-8.2,16.72-12.63,25.31,3.83-.73,8.93-.74,13.18-2.65,26.12-11.77,49.24-27.55,65.28-52,7.09-10.81,10.21-22.82,8.18-35.74-.38-2.42-2.19-6-4.13-6.59-24.14-7.94-44.21-21.59-60.76-43C627.2,480.6,611,498.38,587.64,513.12ZM365.31,690.89q-52.32-57.6-104.87-115c-16.71-18.29-33.16-36.82-50.35-54.66-3-3.15-9.52-5.33-13.62-4.41-3.66.82-8.23,6.31-8.69,10.18-.49,4,2.54,9.44,5.6,12.82q75.78,83.53,152,166.65c2.16,2.35,4.2,5.68,6.9,6.46,4.12,1.19,9.34,1.89,13,.29,3.32-1.44,5.19-6.23,8.21-10.21C370.4,698.35,368.32,694.2,365.31,690.89ZM733.89,707q74.79-81.33,149.28-163c1.56-1.71,4.13-3.58,4.16-5.41.09-4.86.6-11-2-14.24-2.33-2.88-8.76-3.73-13.13-3.24-3.09.35-6.06,4.16-8.57,6.89Q791.26,606.88,719,685.83c-2.95,3.22-6.86,6.1-8.41,9.91s-2.08,9.22-.58,12.92c1.34,3.31,6.05,5.27,10.46,8.76C725.62,713.49,730.38,710.82,733.89,707ZM471.49,303.24a25.55,25.55,0,0,0-24.13-22.4c-12.82-.63-24.12,7.76-26.46,20.51-1.09,5.93-1,12.15-.74,18.22,0,1.52,2.52,4.19,3.92,4.22,15.63.31,31.27.19,47.54.19C471.62,316.46,472.22,309.78,471.49,303.24ZM251.1,823.57a19.94,19.94,0,0,0-.49,39.87,19.94,19.94,0,1,0,.49-39.87Z"/></g></g></svg>