<svg xmlns="http://www.w3.org/2000/svg" xmlns:xlink="http://www.w3.org/1999/xlink" viewBox="0 0 1080 1080"><defs><style>.cls-1,.cls-5{fill:none;}.cls-2{isolation:isolate;}.cls-3{opacity:0.1;mix-blend-mode:lighten;}.cls-4{clip-path:url(#clip-path);}.cls-5{stroke:#fff;stroke-miterlimit:10;stroke-width:2.03px;}.cls-6{fill:url(#linear-gradient);}</style><clipPath id="clip-path"><rect class="cls-1" x="-2483" y="-1211" width="1920" height="1080"/></clipPath><linearGradient id="linear-gradient" x1="179.02" y1="540" x2="900.98" y2="540" gradientUnits="userSpaceOnUse"><stop offset="0.1" stop-color="#71c479"/><stop offset="0.83" stop-color="#92ffb3"/></linearGradient></defs><title>.</title><g class="cls-2"><g id="BACKGROUND"><g class="cls-3"><g class="cls-4"><line class="cls-5" x1="790.49" y1="120.13" x2="-801.17" y2="-1461.02"/><line class="cls-5" x1="327.79" y1="120.13" x2="-945.54" y2="-1461.02"/><line class="cls-5" x1="-3798.76" y1="82.15" x2="752.76" y2="82.15"/><line class="cls-5" x1="-3940.02" y1="222.44" x2="894.02" y2="222.44"/><line class="cls-5" x1="-4081.29" y1="362.73" x2="1035.29" y2="362.73"/></g></g></g><g id="TEXTS"><path class="cls-6" d="M398.18,539.71c.1-78.3,63.85-141.7,142.29-141.51s141.59,64,141.32,142.48c-.27,77.92-63.85,141.16-141.89,141.13C461.58,681.78,398.07,618.1,398.18,539.71Zm-6.45-248.53c-4.89-6.63-12.36-9.06-20.62-9-19.86.07-39.73-.23-59.59.16-6.31.12-9.81-1.68-13.12-7.39-14.32-24.71-42.71-36.27-70.55-29.53-26.8,6.49-47.17,30.89-48.72,58.37a64.46,64.46,0,0,0,41.55,64.39c26.35,9.93,57.32,2.63,72.64-20.56,8.19-12.39,17-15.67,30-13.87a19.36,19.36,0,0,0,2.41,0c11,.07,23.82-3.34,32.5,1.19,9,4.67,14,17,20.67,26.07,11.83,16.22,23.54,32.52,35.08,48.49l41.78-30.26C434.62,350.09,413.35,320.51,391.73,291.18ZM409.1,677.26c-15.41,21.3-30.67,42.71-46.39,63.79a14.18,14.18,0,0,1-9.59,5c-14.74.53-29.52.05-44.28.33-4.63.09-7-1.46-9.27-5.54-11.4-20.15-29-31.47-52-33-31.84-2.15-60.42,19.58-66.92,50-6.77,31.72,9.75,62.76,39.53,74.25,30,11.59,63.07,0,79.09-28.25,2.69-4.74,5.46-6.13,10.6-6.06,20.39.28,40.8.07,61.2.13,8.57,0,16.11-2.68,21.18-9.59,21.4-29.17,42.51-58.54,63.47-87.48l-41.59-30.13C412.62,672.64,410.81,674.91,409.1,677.26ZM671,402.64c15.25-21.08,30.62-42.08,45.63-63.34,3-4.23,6.08-5.82,11.21-5.69q20.93.54,41.87,0c5.39-.13,8.36,1.35,11.24,6.36,11.37,19.77,28.93,30.74,51.65,32.23,31.76,2.08,60.29-19.7,66.77-50.16,6.75-31.67-9.84-62.68-39.68-74.15a63.56,63.56,0,0,0-79,28.43c-2.71,4.84-5.63,6-10.66,5.94-19.86-.25-39.72.08-59.58-.17-10.87-.14-19,4-25.3,12.85-13.68,19.24-27.61,38.3-41.43,57.44-6.55,9.08-13.07,18.18-19.33,26.88l41.57,30C667.45,407.28,669.25,405,671,402.64ZM628,705.93q29.21,40.47,58.45,80.89c5.41,7.46,12.89,11,22.13,11,20.67,0,41.34.16,62-.13,4.94-.07,7.44,1.51,9.92,5.83,11.69,20.34,29.56,31.61,53,32.79a64,64,0,0,0,66-51.12c6.26-31.45-10.38-62-40-73.27-30-11.47-63,.33-79,28.61-2.46,4.35-4.95,6-9.9,5.84-14.22-.35-28.46-.41-42.67,0-5.56.17-8.67-1.91-11.74-6.25-15-21.25-30.37-42.27-45.62-63.36-1.66-2.29-3.45-4.49-4.74-6.16l-41.48,30.05C625.58,702.42,626.78,704.2,628,705.93ZM565.65,312.59c-.15-6.67,1.26-10.71,7.8-14.5,24.62-14.25,36-43.18,29-70.7-6.77-26.6-30.62-46.47-57.86-48.21a64.58,64.58,0,0,0-64.34,40.35c-10.4,26.14-3.93,57.6,19.13,72.92,13.88,9.23,16.05,19.36,15,33.55-.83,11.61-.17,23.33-.17,34.34h51.57C565.77,344.64,566,328.61,565.65,312.59ZM312.5,514.35c-6.75.17-10.71-1.41-14.46-7.88-14.25-24.57-43.19-35.91-70.73-28.9-26.52,6.76-46.46,30.75-48.16,57.93a64.52,64.52,0,0,0,40.42,64.28c26.2,10.37,57.45,3.82,72.94-19.16,9-13.35,18.68-16.21,32.73-15,9.85.85,19.84.19,29.76.13,2,0,4-.39,6-.59-.53-8.94-1.41-17.22-1.41-25.5s.89-16.42,1.44-25.45C344.55,514.22,328.52,514,312.5,514.35Zm455.79,51.31c6.21-.15,9.86,1.37,13.22,7.22,14,24.5,41.79,36,69.59,29.88,26.8-5.94,47.45-29.84,49.68-57.49a64.89,64.89,0,0,0-38.9-64.53c-25.77-11-57.63-5.51-73.27,17.53-10.35,15.24-21.78,17.2-37.12,16.07-8.8-.65-17.69-.15-26.54-.09a52,52,0,0,0-5.3.53v51C735.7,565.79,752,566.05,768.29,565.66ZM514.37,769.36c.18,5.93-1.77,8.89-6.83,11.79a63.59,63.59,0,0,0-29.65,72.53,64.41,64.41,0,0,0,124.28-.36,63.8,63.8,0,0,0-30-72.4c-5-2.8-6.58-5.68-6.47-11.13.33-16.82.12-33.66.12-50.11H514.2C514.2,736.2,513.88,752.79,514.37,769.36Z"/></g></g></svg>